<svg width="80" height="36" viewBox="0 0 154 36" fill="none" xmlns="http://www.w3.org/2000/svg">
<path d="M26.5243 1.88376V27H17.6575V1.88376H26.5243ZM10.7695 1.88376V27H1.90275V1.88376H10.7695ZM22.5666 11.1311V17.6385H6.1649V11.1311H22.5666ZM40.2267 15.1269C40.2267 14.5434 40.0872 14.0867 39.8081 13.7569C39.5544 13.4271 39.1485 13.2622 38.5904 13.2622C38.0576 13.2622 37.6136 13.4144 37.2584 13.7188C36.9033 14.0233 36.7003 14.6322 36.6496 15.5455L29.2669 14.4799C29.4445 12.3742 30.3578 10.6998 32.0069 9.45668C33.6559 8.21356 36.0534 7.59199 39.1992 7.59199C41.4064 7.59199 43.2204 7.89643 44.6411 8.50531C46.0872 9.11419 47.1527 9.96408 47.8377 11.055C48.5481 12.1459 48.9032 13.4144 48.9032 14.8605V20.759C48.9032 21.7992 49.398 22.3192 50.3874 22.3192C50.6664 22.3192 50.8821 22.2812 51.0343 22.2051L50.6538 26.6956C49.7151 27.1522 48.5861 27.3805 47.2669 27.3805C46.0745 27.3805 45.009 27.2156 44.0703 26.8858C43.1569 26.5307 42.4339 26.0106 41.9011 25.3256C41.3937 24.6152 41.14 23.7146 41.14 22.6237V22.2431H41.9772C41.9519 23.2072 41.6348 24.0825 41.0259 24.8689C40.4424 25.63 39.6559 26.2389 38.6665 26.6956C37.677 27.1522 36.5481 27.3805 35.2796 27.3805C33.935 27.3805 32.7933 27.1776 31.8546 26.7717C30.9413 26.3658 30.2436 25.7822 29.7616 25.0211C29.2796 24.26 29.0386 23.3594 29.0386 22.3192C29.0386 20.9239 29.4825 19.7949 30.3705 18.9324C31.2584 18.0444 32.5396 17.4355 34.214 17.1057L40.8356 15.7357L40.7975 18.8182L38.7426 19.3129C38.2098 19.4398 37.8293 19.6554 37.6009 19.9598C37.3726 20.2389 37.2584 20.5941 37.2584 21.0254C37.2584 21.4313 37.3853 21.7611 37.639 22.0148C37.8927 22.2685 38.2479 22.3954 38.7045 22.3954C38.9075 22.3954 39.0978 22.3573 39.2753 22.2812C39.4783 22.2051 39.6432 22.0909 39.7701 21.9387C39.9223 21.7865 40.0364 21.6089 40.1126 21.4059C40.1887 21.1776 40.2267 20.9239 40.2267 20.6448V15.1269ZM61.8812 7.59199C64.2152 7.59199 66.1179 7.9218 67.5894 8.58142C69.0608 9.21567 70.1391 10.0275 70.8241 11.0169C71.5344 12.0064 71.9023 13.0212 71.9276 14.0613L63.86 16.4207C63.86 15.4059 63.7332 14.6702 63.4795 14.2135C63.2511 13.7315 62.8452 13.4905 62.2617 13.4905C61.7543 13.4905 61.3357 13.6174 61.0059 13.8711C60.7014 14.0994 60.4731 14.518 60.3209 15.1269C60.1941 15.7104 60.1306 16.5349 60.1306 17.6004C60.1306 18.6913 60.2194 19.5159 60.397 20.074C60.6 20.6321 60.8664 21.0127 61.1962 21.2157C61.526 21.3932 61.8938 21.482 62.2998 21.482C62.6803 21.482 62.9847 21.3932 63.2131 21.2157C63.4414 21.0127 63.619 20.7209 63.7458 20.3404C63.8981 19.9598 63.9869 19.5032 64.0122 18.9704L71.8515 21.4059C71.8262 22.4715 71.4203 23.4609 70.6338 24.3742C69.8473 25.2622 68.7437 25.9852 67.323 26.5433C65.9277 27.1015 64.2659 27.3805 62.3378 27.3805C60.0545 27.3805 58.0883 27 56.4393 26.2389C54.7903 25.4524 53.5218 24.3235 52.6338 22.852C51.7712 21.3806 51.3399 19.592 51.3399 17.4863C51.3399 15.3806 51.7712 13.592 52.6338 12.1205C53.5218 10.6491 54.7522 9.53279 56.3251 8.7717C57.9234 7.98523 59.7754 7.59199 61.8812 7.59199ZM97.5116 7.97254L87.7695 18.704L86.2473 18.8182L81.3382 24.7928L81.224 16.3066L88.112 7.97254H97.5116ZM82.556 0.361559V27H73.8033V0.361559H82.556ZM89.2536 13.0719L97.9302 27H88.4164L83.9259 18.2474L89.2536 13.0719ZM107.785 27.3805C105.502 27.3805 103.549 27 101.925 26.2389C100.301 25.4524 99.0582 24.3235 98.1957 22.852C97.3331 21.3806 96.9018 19.592 96.9018 17.4863C96.9018 15.3806 97.3331 13.592 98.1957 12.1205C99.0836 10.6491 100.314 9.53279 101.887 8.7717C103.485 7.98523 105.337 7.59199 107.443 7.59199C109.599 7.59199 111.426 7.98523 112.923 8.7717C114.445 9.53279 115.599 10.611 116.386 12.0064C117.172 13.4017 117.566 15.0254 117.566 16.8774C117.566 17.2833 117.54 17.7019 117.489 18.1332C117.464 18.5645 117.426 18.907 117.375 19.1607H102.534V15.926H113.57L109.422 17.5624C109.422 16.1924 109.295 15.1522 109.041 14.4419C108.813 13.7315 108.293 13.3763 107.481 13.3763C106.948 13.3763 106.504 13.5032 106.149 13.7569C105.819 14.0106 105.578 14.4546 105.426 15.0888C105.274 15.6977 105.198 16.5476 105.198 17.6385C105.198 18.7294 105.299 19.5666 105.502 20.1501C105.705 20.7083 105.997 21.0888 106.377 21.2918C106.783 21.4694 107.291 21.5581 107.9 21.5581C108.559 21.5581 109.067 21.4186 109.422 21.1395C109.802 20.8351 110.056 20.4292 110.183 19.9218L117.223 21.8245C116.944 23.0677 116.322 24.1078 115.358 24.945C114.394 25.7569 113.24 26.3658 111.895 26.7717C110.576 27.1776 109.206 27.3805 107.785 27.3805ZM128.452 0.361559V19.4271C128.452 20.1882 128.566 20.7463 128.795 21.1015C129.023 21.4567 129.429 21.6343 130.013 21.6343C130.292 21.6343 130.533 21.6216 130.736 21.5962C130.964 21.5455 131.18 21.4947 131.383 21.444L131.002 26.1628C130.52 26.518 129.822 26.8097 128.909 27.0381C128.021 27.2664 127.146 27.3805 126.283 27.3805C123.924 27.3805 122.237 26.8732 121.222 25.8584C120.207 24.8436 119.7 23.1438 119.7 20.759V0.361559H128.452ZM153.725 7.97254L148.131 24.8689C147.293 27.3805 146.355 29.3848 145.314 30.8816C144.3 32.4038 143.069 33.4947 141.623 34.1543C140.202 34.8393 138.465 35.1818 136.41 35.1818C135.192 35.1818 134.088 35.0676 133.099 34.8393C132.109 34.611 131.26 34.3065 130.549 33.926L132.147 28.408C132.553 28.6364 132.985 28.8013 133.441 28.9027C133.923 29.0042 134.621 29.055 135.534 29.055C136.346 29.055 136.942 28.9789 137.323 28.8266C137.729 28.6744 138.008 28.408 138.16 28.0275L138.274 27.723L135.877 22.129L130.435 7.97254H139.987L141.699 17.7907L142.422 22.2431L143.26 17.7527L145.162 7.97254H153.725Z" fill="#000B73"/>
<mask id="mask0_11_4" style="mask-type:alpha" maskUnits="userSpaceOnUse" x="1" y="0" width="153" height="36">
<path d="M26.5243 1.88376V27H17.6575V1.88376H26.5243ZM10.7695 1.88376V27H1.90275V1.88376H10.7695ZM22.5666 11.1311V17.6385H6.1649V11.1311H22.5666ZM40.2267 15.1269C40.2267 14.5434 40.0872 14.0867 39.8081 13.7569C39.5544 13.4271 39.1485 13.2622 38.5904 13.2622C38.0576 13.2622 37.6136 13.4144 37.2584 13.7188C36.9033 14.0233 36.7003 14.6322 36.6496 15.5455L29.2669 14.4799C29.4445 12.3742 30.3578 10.6998 32.0069 9.45668C33.6559 8.21356 36.0534 7.59199 39.1992 7.59199C41.4064 7.59199 43.2204 7.89643 44.6411 8.50531C46.0872 9.11419 47.1527 9.96408 47.8377 11.055C48.5481 12.1459 48.9032 13.4144 48.9032 14.8605V20.759C48.9032 21.7992 49.398 22.3192 50.3874 22.3192C50.6664 22.3192 50.8821 22.2812 51.0343 22.2051L50.6538 26.6956C49.7151 27.1522 48.5861 27.3805 47.2669 27.3805C46.0745 27.3805 45.009 27.2156 44.0703 26.8858C43.1569 26.5307 42.4339 26.0106 41.9011 25.3256C41.3937 24.6152 41.14 23.7146 41.14 22.6237V22.2431H41.9772C41.9519 23.2072 41.6348 24.0825 41.0259 24.8689C40.4424 25.63 39.6559 26.2389 38.6665 26.6956C37.677 27.1522 36.5481 27.3805 35.2796 27.3805C33.935 27.3805 32.7933 27.1776 31.8546 26.7717C30.9413 26.3658 30.2436 25.7822 29.7616 25.0211C29.2796 24.26 29.0386 23.3594 29.0386 22.3192C29.0386 20.9239 29.4825 19.7949 30.3705 18.9324C31.2584 18.0444 32.5396 17.4355 34.214 17.1057L40.8356 15.7357L40.7975 18.8182L38.7426 19.3129C38.2098 19.4398 37.8293 19.6554 37.6009 19.9598C37.3726 20.2389 37.2584 20.5941 37.2584 21.0254C37.2584 21.4313 37.3853 21.7611 37.639 22.0148C37.8927 22.2685 38.2479 22.3954 38.7045 22.3954C38.9075 22.3954 39.0978 22.3573 39.2753 22.2812C39.4783 22.2051 39.6432 22.0909 39.7701 21.9387C39.9223 21.7865 40.0364 21.6089 40.1126 21.4059C40.1887 21.1776 40.2267 20.9239 40.2267 20.6448V15.1269ZM61.8812 7.59199C64.2152 7.59199 66.1179 7.9218 67.5894 8.58142C69.0608 9.21567 70.1391 10.0275 70.8241 11.0169C71.5344 12.0064 71.9023 13.0212 71.9276 14.0613L63.86 16.4207C63.86 15.4059 63.7332 14.6702 63.4795 14.2135C63.2511 13.7315 62.8452 13.4905 62.2617 13.4905C61.7543 13.4905 61.3357 13.6174 61.0059 13.8711C60.7014 14.0994 60.4731 14.518 60.3209 15.1269C60.1941 15.7104 60.1306 16.5349 60.1306 17.6004C60.1306 18.6913 60.2194 19.5159 60.397 20.074C60.6 20.6321 60.8664 21.0127 61.1962 21.2157C61.526 21.3932 61.8938 21.482 62.2998 21.482C62.6803 21.482 62.9847 21.3932 63.2131 21.2157C63.4414 21.0127 63.619 20.7209 63.7458 20.3404C63.8981 19.9598 63.9869 19.5032 64.0122 18.9704L71.8515 21.4059C71.8262 22.4715 71.4203 23.4609 70.6338 24.3742C69.8473 25.2622 68.7437 25.9852 67.323 26.5433C65.9277 27.1015 64.2659 27.3805 62.3378 27.3805C60.0545 27.3805 58.0883 27 56.4393 26.2389C54.7903 25.4524 53.5218 24.3235 52.6338 22.852C51.7712 21.3806 51.3399 19.592 51.3399 17.4863C51.3399 15.3806 51.7712 13.592 52.6338 12.1205C53.5218 10.6491 54.7522 9.53279 56.3251 8.7717C57.9234 7.98523 59.7754 7.59199 61.8812 7.59199ZM97.5116 7.97254L87.7695 18.704L86.2473 18.8182L81.3382 24.7928L81.224 16.3066L88.112 7.97254H97.5116ZM82.556 0.361559V27H73.8033V0.361559H82.556ZM89.2536 13.0719L97.9302 27H88.4164L83.9259 18.2474L89.2536 13.0719ZM107.785 27.3805C105.502 27.3805 103.549 27 101.925 26.2389C100.301 25.4524 99.0582 24.3235 98.1957 22.852C97.3331 21.3806 96.9018 19.592 96.9018 17.4863C96.9018 15.3806 97.3331 13.592 98.1957 12.1205C99.0836 10.6491 100.314 9.53279 101.887 8.7717C103.485 7.98523 105.337 7.59199 107.443 7.59199C109.599 7.59199 111.426 7.98523 112.923 8.7717C114.445 9.53279 115.599 10.611 116.386 12.0064C117.172 13.4017 117.566 15.0254 117.566 16.8774C117.566 17.2833 117.54 17.7019 117.489 18.1332C117.464 18.5645 117.426 18.907 117.375 19.1607H102.534V15.926H113.57L109.422 17.5624C109.422 16.1924 109.295 15.1522 109.041 14.4419C108.813 13.7315 108.293 13.3763 107.481 13.3763C106.948 13.3763 106.504 13.5032 106.149 13.7569C105.819 14.0106 105.578 14.4546 105.426 15.0888C105.274 15.6977 105.198 16.5476 105.198 17.6385C105.198 18.7294 105.299 19.5666 105.502 20.1501C105.705 20.7083 105.997 21.0888 106.377 21.2918C106.783 21.4694 107.291 21.5581 107.9 21.5581C108.559 21.5581 109.067 21.4186 109.422 21.1395C109.802 20.8351 110.056 20.4292 110.183 19.9218L117.223 21.8245C116.944 23.0677 116.322 24.1078 115.358 24.945C114.394 25.7569 113.24 26.3658 111.895 26.7717C110.576 27.1776 109.206 27.3805 107.785 27.3805ZM128.452 0.361559V19.4271C128.452 20.1882 128.566 20.7463 128.795 21.1015C129.023 21.4567 129.429 21.6343 130.013 21.6343C130.292 21.6343 130.533 21.6216 130.736 21.5962C130.964 21.5455 131.18 21.4947 131.383 21.444L131.002 26.1628C130.52 26.518 129.822 26.8097 128.909 27.0381C128.021 27.2664 127.146 27.3805 126.283 27.3805C123.924 27.3805 122.237 26.8732 121.222 25.8584C120.207 24.8436 119.7 23.1438 119.7 20.759V0.361559H128.452ZM153.725 7.97254L148.131 24.8689C147.293 27.3805 146.355 29.3848 145.314 30.8816C144.3 32.4038 143.069 33.4947 141.623 34.1543C140.202 34.8393 138.465 35.1818 136.41 35.1818C135.192 35.1818 134.088 35.0676 133.099 34.8393C132.109 34.611 131.26 34.3065 130.549 33.926L132.147 28.408C132.553 28.6364 132.985 28.8013 133.441 28.9027C133.923 29.0042 134.621 29.055 135.534 29.055C136.346 29.055 136.942 28.9789 137.323 28.8266C137.729 28.6744 138.008 28.408 138.16 28.0275L138.274 27.723L135.877 22.129L130.435 7.97254H139.987L141.699 17.7907L142.422 22.2431L143.26 17.7527L145.162 7.97254H153.725Z" fill="#050505"/>
</mask>
<g mask="url(#mask0_11_4)">
<ellipse cx="66.9369" cy="19.1599" rx="67.9445" ry="11.7401" transform="rotate(-16.1962 66.9369 19.1599)" fill="#4D73E2"/>
</g>
</svg>
